# xmcd
#
# Track frame offsets: 
#        150
#        17663
#        33980
#        49598
#        67519
#        83369
#        102995
#        122446
#        141056
#        161876
#        174606
#        193780
#        211660
#        227943
#        246571
#        268981
#
# Disc length: 3840 seconds
#
# Revision: 0
# Processed by: cddbd v1.4PL0 Copyright (c) Steve Scherf et al.
# Submitted via: ExactAudioCopy v0.95a3
#
DISCID=d50efe10
DTITLE=周启生 - 周启生精选DISC2
DYEAR=1900
DGENRE=
TTITLE0=又是下雨天
TTITLE1=离乡别井
TTITLE2=午夜突破
TTITLE3=长得很
TTITLE4=天使魔鬼混合体
TTITLE5=躲藏的眼睛
TTITLE6=你在何方
TTITLE7=太胡闹
TTITLE8=孟加拉REMIX
TTITLE9=I love you so
TTITLE10=家
TTITLE11=舍不得你
TTITLE12=凶恋
TTITLE13=站别
TTITLE14=随便吧
TTITLE15=眼睛
EXTD=
EXTT0=
EXTT1=
EXTT2=
EXTT3=
EXTT4=
EXTT5=
EXTT6=
EXTT7=
EXTT8=
EXTT9=
EXTT10=
EXTT11=
EXTT12=
EXTT13=
EXTT14=
EXTT15=
PLAYORDER=
